<svg width="100" height="100" viewBox="0 0 100 100" fill="none" xmlns="http://www.w3.org/2000/svg">
<path fill-rule="evenodd" clip-rule="evenodd" d="M8.33325 33.3334C8.33325 24.1286 15.7952 16.6667 24.9999 16.6667H54.1666C63.3713 16.6667 70.8332 24.1286 70.8332 33.3334V66.6667C70.8332 75.8714 63.3713 83.3334 54.1666 83.3334H24.9999C15.7952 83.3334 8.33325 75.8714 8.33325 66.6667V33.3334ZM24.9999 25C20.3975 25 16.6666 28.731 16.6666 33.3334V66.6667C16.6666 71.2691 20.3975 75 24.9999 75H54.1666C58.769 75 62.4999 71.2691 62.4999 66.6667V33.3334C62.4999 28.731 58.769 25 54.1666 25H24.9999Z" fill="white"/>
<path fill-rule="evenodd" clip-rule="evenodd" d="M77.7586 28.1616C83.1213 23.3351 91.6667 27.1409 91.6667 34.3557V65.6443C91.6667 72.8591 83.1213 76.6648 77.7586 71.8384L65.2586 60.5884C63.5027 59.0081 62.5 56.7567 62.5 54.3943V45.6057C62.5 43.2433 63.5027 40.9919 65.2586 39.4116L77.7586 28.1616ZM83.3333 34.3557L70.8333 45.6057L70.8333 54.3943L83.3333 65.6443L83.3333 34.3557Z" fill="white"/>
</svg>
