<svg width="24" height="24" viewBox="0 0 24 24" fill="none" xmlns="http://www.w3.org/2000/svg">
<path fill-rule="evenodd" clip-rule="evenodd" d="M12 4C10.3431 4 9 5.34315 9 7C9 8.65685 10.3431 10 12 10C13.6569 10 15 8.65685 15 7C15 5.34315 13.6569 4 12 4ZM7 7C7 4.23858 9.23858 2 12 2C14.7614 2 17 4.23858 17 7C17 9.76142 14.7614 12 12 12C9.23858 12 7 9.76142 7 7Z" fill="white"/>
<path fill-rule="evenodd" clip-rule="evenodd" d="M12 15C8.55754 15 6.74791 16.2198 5.84513 17.6976C5.53095 18.212 5.60997 18.6971 5.99354 19.1428C6.41196 19.629 7.16858 20 7.99999 20H16C16.8314 20 17.588 19.629 18.0064 19.1428C18.39 18.6971 18.469 18.212 18.1549 17.6976C17.2521 16.2198 15.4424 15 12 15ZM4.13838 16.655C5.48769 14.4462 8.03683 13 12 13C15.9632 13 18.5123 14.4462 19.8616 16.655C20.6991 18.0259 20.3785 19.4526 19.5224 20.4474C18.701 21.4018 17.3777 22 16 22H7.99999C6.62227 22 5.29895 21.4018 4.47764 20.4474C3.62147 19.4526 3.30094 18.0259 4.13838 16.655Z" fill="white"/>
</svg>
