<svg width="52" height="52" viewBox="0 0 52 52" fill="none" xmlns="http://www.w3.org/2000/svg">
<rect width="52" height="52" rx="26" fill="#1D1D1D"/>
<path fill-rule="evenodd" clip-rule="evenodd" d="M12.6666 20.6667C12.6666 17.7212 15.0544 15.3334 18 15.3334H27.3333C30.2788 15.3334 32.6666 17.7212 32.6666 20.6667V31.3334C32.6666 34.2789 30.2788 36.6667 27.3333 36.6667H18C15.0544 36.6667 12.6666 34.2789 12.6666 31.3334V20.6667ZM18 18C16.5272 18 15.3333 19.1939 15.3333 20.6667V31.3334C15.3333 32.8061 16.5272 34 18 34H27.3333C28.8061 34 30 32.8061 30 31.3334V20.6667C30 19.1939 28.8061 18 27.3333 18H18Z" fill="white"/>
<path fill-rule="evenodd" clip-rule="evenodd" d="M34.8828 19.0117C36.5988 17.4672 39.3333 18.6851 39.3333 20.9938V31.0062C39.3333 33.3149 36.5988 34.5327 34.8828 32.9883L30.8828 29.3883C30.3209 28.8826 30 28.1621 30 27.4062V24.5938C30 23.8378 30.3209 23.1174 30.8828 22.6117L34.8828 19.0117ZM36.6667 20.9938L32.6667 24.5938L32.6667 27.4062L36.6667 31.0062L36.6667 20.9938Z" fill="white"/>
</svg>
